<?xml version="1.0" standalone="no"?>
<!DOCTYPE svg PUBLIC "-//W3C//DTD SVG 20010904//EN"
 "http://www.w3.org/TR/2001/REC-SVG-20010904/DTD/svg10.dtd">
<svg version="1.0" xmlns="http://www.w3.org/2000/svg"
 width="418.000000pt" height="626.000000pt" viewBox="0 0 418.000000 626.000000"
 preserveAspectRatio="xMidYMid meet">

<g transform="translate(0.000000,626.000000) scale(0.100000,-0.100000)"
fill="#000000" stroke="none">
<path d="M1630 6244 c25 -11 51 -14 91 -9 31 3 137 8 235 11 98 3 180 7 183 9
2 3 -119 5 -270 5 -255 -1 -272 -2 -239 -16z"/>
<path d="M2454 6245 c27 -20 119 -20 136 0 11 13 2 15 -71 15 -76 -1 -82 -2
-65 -15z"/>
<path d="M13 6183 c-10 -3 -13 -38 -13 -124 l0 -119 44 0 c46 0 56 10 56 54 0
30 35 75 69 88 25 9 25 11 7 22 -18 10 -27 19 -73 69 -16 16 -62 22 -90 10z"/>
<path d="M473 6139 c-46 -23 -83 -47 -83 -55 0 -39 124 -58 193 -29 49 20 80
19 102 -5 23 -26 125 -29 149 -4 37 37 10 64 -64 64 -72 0 -124 15 -156 45
-15 14 -34 25 -43 25 -9 0 -53 -19 -98 -41z"/>
<path d="M2324 5769 c-162 -15 -351 -98 -437 -192 -49 -52 -137 -217 -137
-254 0 -16 8 -20 48 -21 124 -3 352 -135 697 -402 116 -90 148 -120 131 -120
-2 0 -42 28 -88 63 -204 156 -394 287 -498 344 -147 82 -314 120 -293 67 3 -8
0 -14 -5 -14 -6 0 -20 -20 -31 -45 -16 -37 -18 -51 -9 -73 6 -15 10 -42 9 -59
-1 -24 3 -33 14 -33 8 0 15 -5 15 -10 0 -19 44 -29 54 -13 5 10 4 18 -4 23 -9
6 -9 9 -1 11 15 5 3 39 -14 39 -31 0 -58 61 -34 76 21 12 85 5 142 -16 58 -22
80 -52 32 -42 -14 2 -32 -1 -40 -8 -8 -6 -19 -9 -25 -5 -5 3 -10 -1 -10 -9 0
-9 6 -16 14 -16 8 0 16 -7 20 -15 3 -8 14 -15 24 -15 17 0 19 -6 15 -42 -5
-42 -5 -43 13 -23 21 23 45 31 41 14 -4 -18 43 -31 49 -15 7 17 109 15 127 -3
6 -6 24 -11 39 -11 15 0 28 -4 28 -10 0 -5 4 -10 10 -10 5 0 19 -8 30 -17 15
-14 17 -20 7 -32 -10 -12 -9 -14 7 -8 36 14 78 -52 44 -67 -7 -3 -4 -4 7 -3
16 2 19 -4 18 -30 0 -18 4 -30 8 -27 5 3 9 13 9 23 0 13 8 19 26 19 18 0 22
-4 15 -11 -6 -6 -11 -31 -11 -56 0 -43 14 -50 16 -8 3 41 4 47 12 47 5 0 7
-18 6 -40 -1 -22 2 -43 7 -46 5 -3 9 -13 8 -22 0 -16 -1 -15 -7 0 -7 17 -8 17
-18 0 -8 -13 -7 -21 9 -37 11 -11 16 -13 12 -5 -4 8 1 6 12 -5 l20 -20 -23
-13 c-30 -16 -31 -26 -3 -17 18 6 20 4 14 -14 -4 -12 -17 -33 -31 -48 -13 -14
-24 -30 -24 -34 0 -4 -16 -11 -35 -15 -19 -3 -38 -11 -41 -16 -4 -6 1 -8 14
-4 11 4 23 2 27 -4 3 -6 11 -7 17 -4 7 5 8 2 4 -5 -5 -7 -14 -10 -22 -7 -8 3
-14 -1 -14 -9 0 -8 -9 -19 -19 -25 -28 -15 -35 -12 -17 6 19 19 21 34 4 34
-21 0 -41 -17 -34 -28 3 -6 2 -13 -4 -17 -6 -3 -13 1 -16 10 -5 12 -9 13 -20
4 -8 -6 -14 -8 -14 -4 0 5 -9 0 -20 -10 -12 -10 -19 -24 -16 -31 3 -7 -12 -21
-35 -33 -21 -11 -39 -17 -39 -12 0 5 6 12 13 14 6 3 0 6 -15 6 -22 1 -27 -4
-30 -25 -2 -21 -14 -30 -62 -50 -67 -27 -69 -28 -61 -14 3 6 -1 10 -9 10 -8 0
-18 -4 -21 -10 -9 -15 -28 -12 -22 4 4 9 -5 16 -25 20 -38 8 -47 1 -19 -14 25
-13 27 -32 5 -66 -14 -20 -15 -30 -5 -50 6 -14 8 -30 5 -36 -3 -5 8 -2 26 7
30 15 31 15 21 -2 -5 -10 -21 -30 -34 -44 -86 -91 -228 -291 -215 -304 2 -2
23 29 46 69 48 81 148 198 166 194 6 -2 39 19 74 45 34 27 70 47 79 45 14 -3
15 -5 2 -18 -44 -48 -62 -72 -49 -65 14 8 99 72 129 96 10 9 18 5 37 -17 13
-16 23 -23 24 -16 0 6 4 12 9 12 4 0 6 -11 3 -25 -2 -15 5 -39 18 -62 12 -21
22 -52 22 -70 0 -42 23 -44 46 -3 20 36 28 37 36 8 10 -39 66 -90 92 -85 18 3
24 0 24 -13 0 -10 7 -23 15 -30 8 -7 15 -27 15 -44 l0 -31 18 23 c10 13 20 20
24 17 8 -8 -28 -137 -63 -223 -16 -41 -32 -92 -35 -115 -3 -23 -11 -59 -18
-79 l-12 -36 -54 17 c-117 37 -196 60 -224 65 -15 3 -57 15 -93 27 -66 22 -76
22 -212 3 -32 -5 -54 -16 -80 -41 l-35 -34 49 2 c28 1 77 1 109 0 58 -1 59 -1
42 -20 -10 -11 -15 -24 -12 -29 4 -7 96 -9 116 -2 18 7 147 5 205 -3 176 -22
203 -36 191 -101 l-6 -31 -142 8 c-173 9 -212 5 -280 -29 l-53 -27 33 -15 c30
-15 35 -14 70 5 47 26 155 26 192 0 14 -9 33 -17 45 -17 11 0 47 -14 81 -31
64 -31 84 -60 62 -87 -10 -12 -14 -11 -24 2 -6 9 -30 22 -53 30 -39 14 -42 14
-61 -6 -23 -25 -25 -39 -9 -55 8 -8 8 -20 0 -45 -6 -18 -13 -44 -15 -58 -3
-14 -12 -34 -20 -45 -14 -18 -15 -15 -16 51 0 54 -4 76 -18 92 -33 38 -51 4
-24 -45 7 -12 9 -29 6 -37 -4 -9 -1 -23 6 -31 11 -14 7 -19 -12 -16 -12 2 -10
-17 2 -24 21 -13 9 -25 -22 -22 -26 2 -33 7 -31 22 1 11 -5 23 -12 28 -8 4
-11 15 -8 23 5 14 1 15 -27 9 -23 -5 -30 -4 -26 4 10 16 -7 14 -30 -4 -27 -21
-36 -18 -29 8 5 19 4 20 -7 6 -13 -15 -57 -43 -89 -55 -9 -3 -19 -18 -22 -33
-3 -14 -16 -39 -28 -55 -17 -21 -24 -25 -31 -14 -6 9 -8 1 -6 -22 3 -30 0 -35
-21 -38 -16 -3 -21 0 -15 9 5 9 2 10 -11 5 -17 -6 -17 -2 -12 56 4 35 9 81 13
103 l6 40 -17 -24 c-10 -13 -20 -39 -22 -59 -2 -19 -11 -48 -19 -64 -11 -21
-13 -44 -8 -87 6 -54 4 -61 -21 -90 -37 -41 -62 -40 -73 1 -5 20 -5 36 0 39 6
3 3 9 -6 12 -9 4 -16 16 -16 29 0 21 -1 22 -17 5 -17 -17 -17 -19 0 -28 19
-11 21 -18 7 -39 -7 -12 -12 -12 -29 4 -23 21 -28 45 -8 47 6 1 1 4 -13 8 -19
5 -25 14 -26 36 0 17 2 39 6 50 4 11 1 34 -6 50 -7 17 -13 23 -14 13 0 -19
-30 -31 -54 -22 -9 3 -16 1 -16 -5 0 -6 13 -11 28 -11 37 0 49 -14 44 -50 -6
-40 -29 -38 -49 5 -16 33 -18 34 -35 19 -9 -9 -16 -20 -13 -24 6 -9 -32 -44
-124 -114 -59 -45 -76 -54 -88 -45 -10 9 -16 9 -26 -3 -7 -8 -28 -26 -47 -40
-65 -46 -697 -515 -805 -597 -22 -17 -87 -66 -145 -108 l-105 -78 -3 -223 c-1
-136 1 -221 7 -218 15 9 41 -5 41 -22 0 -8 -8 -24 -17 -34 -9 -10 -18 -37 -19
-59 -1 -22 -4 -43 -8 -46 -11 -12 -6 -169 6 -181 9 -9 9 -15 0 -24 -8 -8 -12
-45 -12 -100 l0 -88 30 0 c28 0 29 -1 18 -22 -7 -12 -21 -29 -30 -39 -15 -16
-17 -48 -18 -267 l-1 -249 38 -7 c21 -3 85 -6 141 -6 l104 0 -37 -50 -37 -50
81 0 c45 0 81 4 81 8 0 11 -51 36 -67 33 -16 -2 -17 15 -1 25 6 4 14 2 16 -4
2 -7 11 -12 20 -12 18 -1 63 -30 46 -30 -5 0 -2 -5 6 -10 8 -5 31 -10 50 -10
l35 0 -31 16 c-18 9 -41 25 -52 37 -24 27 -48 120 -33 125 6 2 8 8 5 14 -3 5
-17 0 -31 -14 -23 -20 -24 -21 -15 -3 5 11 19 28 30 38 19 17 20 17 26 -15 6
-30 8 -32 21 -15 9 12 15 15 20 7 4 -6 0 -17 -10 -23 -47 -35 50 -116 164
-136 39 -7 73 -17 77 -22 3 -5 32 -9 64 -9 l59 0 36 52 c19 29 35 48 35 42 0
-5 -14 -29 -30 -51 l-31 -42 166 0 166 -1 -7 22 c-4 13 -8 45 -9 72 -1 44 1
50 32 70 18 11 31 26 29 32 -3 6 8 27 24 46 16 19 38 53 50 75 12 23 28 47 35
53 8 6 28 33 45 59 25 40 35 47 54 44 27 -6 45 14 22 23 -9 3 -16 11 -16 16 0
6 7 7 16 4 9 -3 12 -2 9 5 -8 12 14 41 26 33 5 -3 7 -15 3 -28 -7 -30 36 -77
64 -69 11 2 23 0 26 -5 4 -7 17 -5 37 5 23 11 34 12 42 4 8 -8 3 -14 -21 -23
-18 -7 -32 -16 -32 -20 0 -16 52 -7 81 14 26 19 31 20 39 8 7 -12 3 -16 -18
-20 -30 -6 -28 -26 3 -22 11 1 5 -4 -13 -13 -37 -16 -36 -30 3 -38 20 -3 25
-1 21 10 -8 20 22 49 36 35 8 -8 17 -8 30 -1 11 6 26 8 34 5 9 -3 12 -1 9 4
-3 6 -16 10 -27 10 -12 0 -19 3 -16 6 11 11 78 -8 78 -22 0 -8 9 -14 21 -14
11 0 17 5 14 10 -12 19 32 10 50 -10 10 -11 24 -20 31 -20 17 0 48 -46 40 -58
-3 -6 4 -13 17 -17 21 -7 21 -7 -7 -14 -34 -7 -49 -51 -18 -51 27 0 61 -51 55
-82 -4 -21 0 -28 19 -33 12 -5 29 -16 36 -26 16 -23 64 -27 56 -5 -3 8 -14 16
-25 19 -21 6 -21 38 0 90 6 15 10 47 9 69 -1 36 -3 39 -11 20 -19 -42 -74 -21
-91 35 -5 15 -2 25 11 32 16 9 16 12 3 21 -13 9 -11 13 10 30 14 11 28 20 33
20 4 0 7 11 7 25 0 26 24 35 33 13 4 -10 6 -10 6 -1 1 7 -9 21 -21 32 l-21 20
24 20 c31 26 55 26 69 1 6 -11 17 -20 26 -20 19 0 34 -41 34 -97 0 -35 3 -43
13 -35 9 8 21 2 45 -19 35 -32 39 -39 18 -39 -26 0 -37 -25 -20 -48 8 -12 12
-27 9 -32 -4 -6 -2 -16 3 -23 8 -10 10 -41 3 -67 -3 -12 -52 -2 -69 13 -10 9
-26 17 -34 17 -9 0 -19 10 -23 23 l-8 22 -4 -23 c-3 -13 0 -28 5 -35 16 -22 0
-106 -22 -108 -6 -1 -17 -1 -23 0 -23 3 -14 -14 17 -32 36 -22 75 -8 67 24 -3
10 0 22 5 26 7 3 8 1 4 -5 -3 -6 3 -16 14 -22 15 -8 20 -8 20 2 0 9 3 9 10 -2
8 -13 10 -13 10 2 0 9 4 20 10 23 6 4 7 -1 3 -12 -6 -15 -4 -16 8 -6 10 8 14
23 11 43 -2 16 0 30 5 30 6 0 9 -11 7 -25 -2 -24 0 -26 38 -22 34 4 41 1 49
-19 5 -15 17 -24 31 -24 13 0 34 -1 48 -1 l25 0 -25 -14 c-22 -12 -12 -14 97
-14 l122 0 -4 64 c-4 53 -2 63 10 58 8 -3 15 -9 15 -14 0 -16 3 -24 18 -38 12
-13 12 -16 -3 -28 -15 -10 -16 -15 -5 -28 14 -17 40 -20 40 -5 0 6 7 10 15 10
8 0 15 -4 15 -10 0 -5 14 -10 31 -10 l31 0 -44 33 c-43 33 -51 58 -26 82 7 7
8 2 3 -15 -4 -18 -3 -21 3 -11 9 12 13 12 27 -2 17 -17 11 -21 -25 -18 -11 1
-9 -3 5 -14 11 -9 21 -11 23 -6 2 6 12 7 28 1 17 -7 23 -7 19 0 -3 6 -1 10 4
10 15 0 14 -27 -1 -36 -15 -10 16 -22 59 -23 22 -1 33 4 36 17 4 16 5 16 6 0
1 -14 11 -17 56 -17 44 1 53 4 45 14 -7 9 -6 16 5 25 12 10 15 10 15 -4 0 -10
5 -14 10 -11 6 4 8 16 4 28 -6 20 -6 20 10 4 10 -9 22 -17 28 -17 22 0 0 -25
-28 -31 -27 -6 -26 -7 10 -8 l39 -1 -6 40 c-3 22 -1 40 4 40 5 0 9 -7 9 -15 0
-8 5 -15 10 -15 6 0 4 12 -4 29 -9 16 -12 31 -9 35 4 3 1 6 -5 6 -7 0 -12 6
-12 14 0 8 -11 17 -25 20 -21 5 -23 9 -15 31 6 16 6 27 -1 31 -5 3 -9 13 -7
22 1 10 -1 23 -5 30 -5 7 -2 14 7 18 9 3 16 15 16 25 0 20 15 26 24 10 4 -5 0
-12 -6 -14 -9 -4 -7 -6 3 -6 9 -1 22 6 29 14 7 8 22 14 34 14 17 -1 17 -2 4
-6 -10 -2 -18 -8 -18 -13 0 -4 9 -6 20 -3 23 6 26 -6 8 -27 -11 -12 -10 -12 3
-2 12 9 18 9 28 -1 9 -9 14 -9 19 0 10 16 75 24 85 10 6 -8 7 -4 4 11 -3 15 0
22 9 22 8 0 17 0 21 0 4 0 8 -9 8 -20 0 -11 4 -19 9 -19 5 0 12 -4 15 -9 3 -6
21 -12 39 -15 21 -4 30 -2 25 6 -4 6 0 8 9 5 11 -5 14 0 10 18 -4 23 15 34 32
17 7 -7 14 -9 51 -13 41 -5 49 -1 35 15 -7 8 -9 15 -5 15 4 0 2 7 -5 15 -7 8
-17 12 -23 8 -6 -3 -7 -1 -3 5 4 7 1 12 -6 12 -8 0 -7 4 4 11 10 5 15 16 12
24 -4 10 0 15 12 15 13 0 15 -3 7 -8 -8 -5 -9 -13 -3 -22 7 -12 13 -12 33 -1
25 13 93 11 116 -4 7 -4 30 -7 51 -7 31 1 38 -2 33 -14 -3 -9 4 -22 18 -32 30
-22 69 -33 69 -20 0 5 17 8 38 7 46 -3 83 14 65 32 -14 14 -47 4 -38 -11 8
-13 -4 -13 -44 1 -17 6 -31 15 -31 20 0 12 7 11 31 -1 12 -7 19 -7 19 -1 0 5
10 11 23 13 12 2 21 8 20 13 -1 6 8 15 20 22 12 7 16 12 10 13 -16 0 -53 36
-53 50 0 6 -10 10 -22 10 -15 0 -19 3 -12 10 13 13 44 3 44 -14 0 -6 11 -16
25 -23 14 -6 22 -7 19 -1 -4 5 1 8 11 6 20 -4 50 -78 31 -78 -6 0 -3 -5 7 -11
9 -5 17 -18 16 -27 0 -10 -3 -12 -6 -4 -7 19 -41 15 -39 -5 0 -10 -8 -19 -19
-21 -33 -6 -38 -19 -16 -41 13 -13 16 -23 10 -27 -6 -4 -15 -1 -19 5 -4 7 -28
14 -54 16 -38 3 -46 0 -42 -11 8 -20 -4 -44 -19 -38 -7 3 -15 -2 -19 -11 -4
-10 -12 -15 -22 -11 -8 3 -12 2 -9 -3 3 -5 -3 -12 -14 -16 -18 -5 -37 -55 -21
-55 4 0 5 -11 2 -25 -2 -14 -8 -25 -12 -25 -4 0 -10 -6 -13 -14 -4 -11 -1 -11
18 -2 13 6 21 15 18 20 -4 5 -1 6 5 3 5 -4 8 -17 4 -29 -3 -12 -7 -17 -10 -10
-6 19 -19 14 -25 -9 -5 -20 -3 -20 111 -16 64 3 122 5 127 6 6 0 40 -2 78 -5
56 -5 67 -4 67 9 0 8 -6 18 -12 20 -10 4 -9 6 1 6 18 1 -6 31 -25 31 -8 0 -14
5 -14 11 0 6 6 9 12 7 7 -3 19 2 27 9 11 12 12 22 2 54 -10 33 -16 40 -34 37
-12 -1 -27 1 -34 5 -11 7 -43 -17 -43 -33 0 -17 19 -20 28 -4 11 19 47 15 47
-5 0 -8 -7 -16 -15 -18 -12 -4 -12 -3 -2 5 11 7 11 10 -2 15 -10 4 -16 1 -16
-8 0 -23 -36 -37 -50 -20 -7 8 -17 15 -23 15 -7 0 -7 -4 1 -12 7 -7 12 -17 12
-23 0 -5 -4 -4 -8 3 -7 10 -14 8 -33 -7 -31 -24 -65 -31 -61 -13 1 8 -7 16
-18 19 -11 3 -20 10 -20 15 0 5 5 6 10 3 6 -3 13 0 16 8 3 8 15 17 26 20 20 6
20 34 0 30 -5 -1 -9 5 -8 15 2 9 11 18 22 20 14 2 16 1 5 -6 -9 -7 -10 -12 -2
-16 15 -10 33 3 25 17 -4 7 -4 9 0 5 8 -7 82 28 92 43 3 6 14 7 25 4 15 -5 19
-1 19 19 0 41 18 30 30 -16 18 -68 18 -67 19 16 1 71 -1 77 -15 65 -13 -11
-15 -11 -13 2 1 7 -3 27 -9 42 -19 45 -16 58 13 51 23 -6 25 -3 25 26 0 27 -3
31 -21 25 -15 -5 -19 -4 -15 4 4 6 14 11 22 11 11 0 14 22 14 120 0 139 -5
150 -63 142 -36 -5 -39 -3 -35 19 3 20 9 23 47 26 24 2 47 5 50 8 13 13 -18
39 -64 54 -76 25 -119 51 -106 64 7 7 22 7 52 -2 67 -20 59 4 -10 27 -34 12
-56 8 -46 -9 4 -5 -1 -9 -9 -9 -28 0 -29 22 0 45 26 20 48 85 24 70 -5 -3 -10
-12 -10 -19 0 -7 -7 -13 -15 -13 -18 0 -18 5 -4 44 7 21 25 39 55 54 24 13 44
27 44 31 0 5 20 8 45 8 45 0 45 0 45 34 0 19 -6 37 -12 40 -10 5 -10 7 0 12 6
3 12 12 12 20 0 10 -7 13 -24 8 -27 -6 -39 14 -30 52 4 17 13 24 30 24 22 0
24 4 24 46 0 41 -2 45 -20 39 -13 -4 -20 -2 -19 7 1 23 14 50 24 49 6 -1 11
14 13 34 3 34 -11 48 -21 22 -3 -6 -6 2 -6 20 -1 17 6 38 14 47 18 18 19 33 3
39 -10 4 -10 6 -1 6 16 1 19 1716 3 1726 -5 3 -10 15 -10 26 0 11 5 17 10 14
6 -4 10 13 10 44 0 44 -3 51 -20 52 -38 3 -42 4 -56 24 -8 11 -22 45 -30 75
-54 191 -126 350 -220 480 -70 97 -190 200 -409 352 -33 23 -103 84 -156 135
-74 72 -114 103 -174 132 l-78 39 -31 -64 c-17 -35 -37 -64 -43 -64 -7 0 -12
-3 -11 -7 4 -11 -35 -73 -45 -73 -4 0 -5 -4 -2 -10 3 -5 -1 -10 -9 -10 -8 0
-18 -10 -22 -22 -9 -31 -53 -71 -70 -64 -8 3 -11 0 -7 -10 3 -8 2 -14 -3 -13
-17 5 -74 -13 -69 -21 3 -5 -3 -11 -12 -13 -10 -2 -3 -3 16 -1 19 2 39 10 44
19 4 8 12 13 17 10 12 -8 -11 -45 -27 -45 -7 0 -13 -7 -13 -15 0 -17 -16 -20
-25 -6 -9 15 -65 41 -65 30 0 -5 16 -17 35 -26 36 -17 47 -43 19 -43 -9 0 -18
-9 -21 -19 -3 -11 -12 -22 -20 -25 -8 -3 -11 -10 -8 -16 3 -5 2 -10 -3 -10
-11 0 -102 -90 -102 -100 0 -4 -22 -31 -50 -60 -27 -29 -50 -59 -50 -66 0 -17
-57 -47 -76 -40 -8 3 -14 1 -14 -4 0 -21 -28 -8 -34 15 -4 15 -11 23 -17 19
-6 -3 -25 10 -44 30 -18 20 -37 36 -43 36 -5 0 -15 7 -22 15 -10 13 -15 13
-21 3 -4 -7 -11 -9 -15 -5 -4 4 -3 12 3 18 8 8 6 19 -4 41 -8 16 -16 44 -17
61 -1 25 3 32 17 31 10 -1 16 1 13 4 -7 7 13 32 26 32 5 0 6 -6 2 -12 -4 -8
-3 -10 2 -5 5 5 10 13 10 18 1 5 2 12 3 15 0 4 7 1 15 -5 9 -8 16 -8 20 -2 4
6 14 7 22 4 28 -10 216 201 249 280 8 20 20 37 26 37 5 0 9 6 8 13 -3 25 1 37
14 34 7 -1 11 7 10 19 -1 12 9 34 23 50 15 15 27 33 28 39 1 7 10 20 20 30 15
15 19 16 27 4 7 -11 9 -10 9 4 0 22 18 42 48 51 12 4 22 14 22 22 0 8 7 14 15
14 8 0 15 5 15 10 0 6 23 34 50 61 28 28 48 54 45 58 -2 5 4 27 15 49 21 43
27 92 11 92 -21 0 -20 45 2 68 37 40 30 94 -25 177 -25 39 -60 99 -77 135 -54
108 -73 127 -194 186 -121 59 -128 60 -303 43z m191 -1069 c3 -5 1 -10 -4 -10
-6 0 -11 5 -11 10 0 6 2 10 4 10 3 0 8 -4 11 -10z m656 -32 c-10 -28 -31 -35
-31 -10 0 22 8 32 26 32 10 0 11 -6 5 -22z m16 -50 c0 -34 -21 -66 -32 -49 -5
9 2 56 12 74 10 17 20 5 20 -25z m-33 -67 c3 -5 -1 -11 -9 -14 -9 -4 -12 -1
-8 9 6 16 10 17 17 5z m96 -105 c0 -15 -50 -56 -69 -56 -20 0 -12 20 12 30 21
8 21 9 2 9 -12 1 -26 -4 -31 -9 -8 -8 -15 -6 -24 5 -11 13 -8 15 21 16 19 0
43 4 54 9 29 12 35 12 35 -4z m79 -100 c-2 -2 -24 -6 -48 -9 -29 -4 -40 -2
-30 4 13 8 88 14 78 5z m-608 -129 c-10 -9 -11 -8 -5 6 3 10 9 15 12 12 3 -3
0 -11 -7 -18z m-20 -34 c-5 -10 -17 -27 -26 -38 -16 -19 -17 -19 -3 5 26 46
29 50 34 50 3 0 0 -8 -5 -17z m-641 -22 c0 -6 -4 -13 -10 -16 -5 -3 -10 1 -10
9 0 9 5 16 10 16 6 0 10 -4 10 -9z m1335 -19 c-3 -3 -11 0 -18 7 -9 10 -8 11
6 5 10 -3 15 -9 12 -12z m130 -33 c11 -17 -1 -21 -15 -4 -8 9 -8 15 -2 15 6 0
14 -5 17 -11z m-291 -34 c10 -8 23 -12 27 -9 5 3 9 0 9 -5 0 -14 -27 -14 -35
-1 -3 6 -15 10 -26 10 -10 0 -19 5 -19 10 0 14 22 12 44 -5z m257 -12 c13 -16
12 -17 -3 -4 -10 7 -18 15 -18 17 0 8 8 3 21 -13z m-7 -22 c3 -5 -1 -11 -9
-15 -9 -3 -15 0 -15 9 0 16 16 20 24 6z m-138 -12 c3 -5 15 -7 27 -4 12 2 16
2 9 -1 -6 -3 -10 -10 -6 -15 6 -10 -9 -12 -20 -2 -3 4 -16 8 -27 10 -12 2 -28
7 -36 12 -11 6 -6 8 16 9 17 0 33 -4 37 -9z m134 -81 c-1 -13 -7 -36 -15 -53
-10 -19 -13 -22 -9 -8 3 13 6 36 6 53 1 16 5 30 10 30 4 0 8 -10 8 -22z m-910
-22 c0 -2 -7 -9 -15 -16 -13 -11 -14 -10 -9 4 5 14 24 23 24 12z m-5 -67 c-4
-13 0 -27 11 -40 16 -17 16 -19 0 -19 -20 0 -41 42 -33 64 10 24 29 20 22 -5z
m-75 -40 c0 -6 -4 -7 -10 -4 -5 3 -10 11 -10 16 0 6 5 7 10 4 6 -3 10 -11 10
-16z m1040 -89 c-19 -16 -39 -30 -44 -30 -5 0 8 14 29 30 49 39 61 39 15 0z
m177 -74 c-6 -16 -63 -54 -112 -74 l-30 -13 29 25 c16 15 33 26 37 26 4 0 22
14 39 31 31 31 48 33 37 5z m-477 -6 c-8 -5 -17 -7 -19 -4 -3 3 1 9 9 14 8 5
17 7 19 4 3 -3 -1 -9 -9 -14z m-432 -89 c-8 -32 -8 -48 0 -62 7 -10 9 -26 5
-34 -5 -13 -7 -14 -14 -3 -12 19 -11 79 2 117 16 45 20 34 7 -18z m837 -186
c-16 -13 -34 -24 -39 -25 -4 0 -23 -12 -42 -27 -68 -56 -94 -74 -136 -93 -24
-10 -59 -35 -77 -54 -19 -20 -39 -36 -45 -36 -6 0 12 23 39 50 27 28 55 48 61
46 6 -2 16 5 23 16 7 11 15 17 18 14 6 -6 123 71 139 92 9 12 54 34 84 41 3 0
-8 -10 -25 -24z m185 -145 c0 -6 -26 -23 -57 -38 -31 -15 -65 -31 -75 -37 -21
-11 -19 -42 2 -37 14 3 30 -15 30 -35 0 -7 -7 -13 -15 -13 -8 0 -15 5 -15 10
0 6 -9 10 -21 10 -15 0 -19 5 -15 15 7 20 -31 20 -70 1 -33 -17 -138 -33 -114
-18 8 5 31 13 50 17 40 9 111 39 220 95 41 21 76 38 78 39 1 1 2 -4 2 -9z
m-1530 -110 c14 -4 18 -9 10 -9 -8 -1 -24 -4 -35 -7 -11 -3 -29 2 -40 10 -19
15 -19 15 10 15 17 -1 41 -5 55 -9z m60 -10 c0 -5 -5 -10 -11 -10 -5 0 -7 5
-4 10 3 6 8 10 11 10 2 0 4 -4 4 -10z m975 -34 c17 -9 23 -15 14 -16 -20 0
-69 37 -69 53 0 6 6 4 13 -5 6 -9 26 -23 42 -32z m476 -43 c13 -15 12 -15 -8
-4 -24 12 -29 21 -14 21 5 0 15 -7 22 -17z m-1361 -253 c-9 -21 -10 -17 -5 24
3 27 6 63 7 80 1 17 3 6 5 -24 2 -31 -1 -67 -7 -80z m-161 56 c-7 -20 -17 -36
-21 -36 -5 0 -1 16 7 36 8 20 15 39 15 42 0 3 3 3 6 -1 3 -3 0 -22 -7 -41z
m-239 -26 c31 -31 24 -57 -26 -105 -61 -60 -87 -66 -125 -29 -52 49 -37 92 47
134 50 25 79 25 104 0z m460 -27 c-11 -17 -11 -17 -6 0 3 10 7 26 7 35 1 15 2
15 6 0 2 -10 -1 -25 -7 -35z m-280 0 c-11 -17 -11 -17 -6 0 3 10 6 24 7 30 0
9 2 9 5 0 3 -7 0 -20 -6 -30z m250 -20 c-11 -17 -11 -17 -6 0 3 10 7 26 7 35
1 15 2 15 6 0 2 -10 -1 -25 -7 -35z m-219 -4 c-9 -22 -10 -22 -10 -3 -1 11 2
24 6 27 12 12 14 0 4 -24z m150 -10 c6 -13 6 -19 -1 -19 -5 0 -10 -11 -10 -24
0 -14 -3 -27 -7 -29 -5 -3 -8 11 -8 31 -1 21 -5 45 -9 55 -11 24 21 11 35 -14z
m750 -37 c10 -47 -5 -48 -18 -1 -7 29 -7 39 1 36 6 -2 13 -18 17 -35z m-1021
18 c0 -5 -5 -10 -11 -10 -5 0 -7 5 -4 10 3 6 8 10 11 10 2 0 4 -4 4 -10z
m1634 -139 c53 -56 17 -32 -72 45 -122 107 -129 116 -37 46 44 -33 93 -74 109
-91z m-1614 131 c0 -5 -7 -17 -15 -28 -14 -18 -14 -17 -4 9 12 27 19 34 19 19z
m298 -43 c-6 -16 -12 -28 -14 -26 -5 5 13 57 20 57 3 0 0 -14 -6 -31z m522 10
c0 -6 -4 -7 -10 -4 -5 3 -10 11 -10 16 0 6 5 7 10 4 6 -3 10 -11 10 -16z m216
-46 c-10 -11 -19 -7 -22 10 -2 15 0 16 12 6 8 -6 12 -14 10 -16z m-626 -48 c0
-9 -6 -12 -15 -9 -8 4 -12 10 -9 15 8 14 24 10 24 -6z m-1130 -41 c0 -8 -4
-14 -10 -14 -12 0 -31 35 -23 44 9 8 33 -14 33 -30z m1710 -14 c0 -11 -4 -20
-9 -20 -11 0 -22 26 -14 34 12 12 23 5 23 -14z m665 -20 c3 -5 2 -10 -4 -10
-5 0 -13 5 -16 10 -3 6 -2 10 4 10 5 0 13 -4 16 -10z m-150 -53 c8 -55 -21
-432 -41 -524 -8 -40 -24 -83 -35 -95 l-20 -23 14 30 c8 17 19 50 25 75 16 66
45 455 39 527 -5 69 8 77 18 10z m440 44 c3 -5 1 -12 -5 -16 -5 -3 -10 1 -10
9 0 18 6 21 15 7z m-958 -23 c-3 -8 -6 -5 -6 6 -1 11 2 17 5 13 3 -3 4 -12 1
-19z m-1367 -43 c-14 -7 -32 -25 -39 -39 -8 -14 -17 -23 -21 -21 -4 3 -13 -2
-20 -10 -17 -21 -29 -19 -23 5 3 10 13 22 22 25 10 3 28 17 41 30 13 14 33 25
44 25 19 -1 19 -2 -4 -15z m-140 -69 c0 -3 -4 -8 -10 -11 -5 -3 -10 -1 -10 4
0 6 5 11 10 11 6 0 10 -2 10 -4z m-602 -167 c-21 -13 4 -30 35 -24 23 4 39 1
57 -14 14 -11 45 -34 69 -53 56 -42 69 -62 55 -85 -6 -10 -21 -18 -34 -18 -13
0 -25 -6 -28 -14 -3 -10 1 -12 16 -9 21 6 21 5 5 -26 -9 -17 -33 -56 -53 -86
-20 -30 -62 -95 -93 -145 -31 -50 -66 -94 -79 -100 -27 -12 -40 -49 -13 -39
15 6 15 4 4 -14 -17 -27 -28 -31 -63 -25 -26 5 -27 8 -21 42 4 20 13 46 20 57
12 19 12 24 -4 38 -27 25 -49 20 -56 -14 -5 -23 -12 -30 -31 -30 -21 0 -24 4
-24 40 0 48 2 56 14 52 13 -4 36 18 36 35 0 9 -6 13 -15 9 -20 -7 -21 -8 26
91 23 49 47 99 53 112 8 19 25 28 70 38 41 9 63 10 70 3 15 -15 82 -12 96 5 7
8 9 15 4 16 -90 6 -152 3 -171 -9 -29 -18 -29 -15 2 54 30 69 31 97 4 135 -12
17 -18 37 -15 46 5 13 13 8 40 -23 20 -23 30 -42 24 -45z m1019 -155 c-3 -3
-12 -4 -19 -1 -8 3 -5 6 6 6 11 1 17 -2 13 -5z m-73 -53 c3 -4 -7 -19 -22 -32
-20 -18 -22 -19 -9 -3 9 11 17 26 17 32 0 14 7 16 14 3z m-154 -179 c0 -5 -7
-17 -16 -28 -8 -10 -14 -14 -11 -9 2 6 7 18 10 28 7 17 17 23 17 9z m-945
-392 c-3 -5 -10 -10 -16 -10 -5 0 -9 5 -9 10 0 6 7 10 16 10 8 0 12 -4 9 -10z
m-175 -84 c0 -3 -4 -8 -10 -11 -5 -3 -10 -1 -10 4 0 6 5 11 10 11 6 0 10 -2
10 -4z m-550 -102 c0 -8 -4 -12 -10 -9 -5 3 -10 10 -10 16 0 5 5 9 10 9 6 0
10 -7 10 -16z m570 -89 c0 -8 -6 -15 -14 -15 -17 0 -28 14 -19 24 12 12 33 6
33 -9z m-118 -55 c32 0 31 -63 -1 -87 -13 -9 -14 -16 -4 -30 6 -10 16 -17 22
-15 15 3 14 -7 -3 -23 -19 -20 -84 -8 -91 16 -4 11 0 26 9 35 19 19 20 25 4
59 -8 19 -8 31 1 51 11 25 13 25 30 10 10 -9 25 -16 33 -16z m-447 -27 c38
-19 95 -73 95 -90 0 -27 -82 -46 -105 -24 -6 5 -33 16 -62 25 -59 20 -76 35
-71 68 6 47 72 56 143 21z m1101 -101 l-29 -27 23 32 c13 18 26 30 29 28 3 -3
-8 -18 -23 -33z m562 20 c2 -7 -3 -12 -12 -12 -9 0 -16 7 -16 16 0 17 22 14
28 -4z m-1758 -119 c0 -22 -17 -50 -25 -42 -6 7 11 59 20 59 3 0 5 -8 5 -17z
m1960 3 c0 -3 -4 -8 -10 -11 -5 -3 -10 -1 -10 4 0 6 5 11 10 11 6 0 10 -2 10
-4z m-1840 -26 c0 -5 -4 -10 -10 -10 -5 0 -10 5 -10 10 0 6 5 10 10 10 6 0 10
-4 10 -10z m346 -27 c-11 -11 -19 6 -11 24 8 17 8 17 12 0 3 -10 2 -21 -1 -24z
m-308 5 c-9 -7 -18 -20 -21 -28 -3 -8 -6 -3 -6 13 -1 21 3 27 21 27 19 0 20
-2 6 -12z m-128 -2 c0 -3 -4 -8 -10 -11 -5 -3 -10 -1 -10 4 0 6 5 11 10 11 6
0 10 -2 10 -4z m-50 -16 c0 -5 -5 -10 -11 -10 -5 0 -7 5 -4 10 3 6 8 10 11 10
2 0 4 -4 4 -10z m4030 -19 c0 -5 -9 -11 -20 -14 -11 -3 -20 -1 -20 3 0 5 8 11
18 13 9 3 18 5 20 6 1 0 2 -3 2 -8z m-3578 -23 c-18 -18 -15 -38 14 -75 14
-18 22 -33 17 -33 -11 0 -53 51 -53 64 0 6 -9 -3 -20 -20 -16 -25 -19 -41 -14
-78 5 -31 10 -43 15 -34 5 7 9 9 9 3 0 -5 -4 -16 -9 -24 -11 -17 -26 8 -35 59
-6 30 -1 43 34 93 23 31 44 57 48 57 3 0 1 -5 -6 -12z m38 -8 c0 -5 -4 -10
-10 -10 -5 0 -10 5 -10 10 0 6 5 10 10 10 6 0 10 -4 10 -10z m1660 -20 c0 -12
-28 -25 -36 -17 -9 9 6 27 22 27 8 0 14 -5 14 -10z m1961 -27 c-8 -15 -10 -15
-11 -2 0 17 10 32 18 25 2 -3 -1 -13 -7 -23z m-1957 -35 c-2 -18 -6 -38 -8
-45 -3 -6 0 -13 6 -15 6 -2 9 -9 7 -14 -3 -7 -16 -8 -37 -2 -28 8 -32 12 -27
35 2 15 10 30 16 34 6 4 9 11 5 17 -5 9 5 15 35 21 4 0 5 -14 3 -31z m1926
-18 c0 -5 -2 -10 -4 -10 -3 0 -8 5 -11 10 -3 6 -1 10 4 10 6 0 11 -4 11 -10z
m-3421 -164 c2 -6 -4 -4 -15 4 -35 28 -144 137 -144 145 0 9 153 -135 159
-149z m1861 125 c0 -4 -7 -8 -15 -8 -16 0 -20 9 -9 20 8 8 24 -1 24 -12z
m1570 9 c0 -5 -5 -10 -11 -10 -5 0 -7 5 -4 10 3 6 8 10 11 10 2 0 4 -4 4 -10z
m-1700 -14 c0 -2 -8 -10 -17 -17 -16 -13 -17 -12 -4 4 13 16 21 21 21 13z
m-1879 -39 c-10 -9 -11 -8 -5 6 3 10 9 15 12 12 3 -3 0 -11 -7 -18z m2249 3
c0 -5 -4 -10 -10 -10 -5 0 -10 5 -10 10 0 6 5 10 10 10 6 0 10 -4 10 -10z
m1295 -66 c-10 -25 -12 -40 -5 -42 5 -2 10 -14 10 -26 0 -12 5 -27 11 -33 8
-8 8 -13 0 -18 -7 -4 -19 11 -30 37 -15 36 -16 47 -6 68 7 14 16 41 21 60 6
27 9 30 12 14 2 -12 -4 -39 -13 -60z m-1743 14 c-14 -15 -28 -25 -31 -22 -3 3
1 9 9 14 8 5 16 15 16 22 1 7 2 19 3 26 1 10 4 10 15 0 12 -11 10 -17 -12 -40z
m418 -30 c28 -27 35 -38 24 -42 -8 -3 -14 -1 -14 5 0 6 -6 7 -12 3 -7 -4 -10
-4 -6 1 10 11 -10 45 -27 45 -10 0 -15 10 -14 28 0 15 3 20 6 12 3 -8 22 -32
43 -52z m1100 52 c0 -5 -5 -10 -11 -10 -5 0 -7 5 -4 10 3 6 8 10 11 10 2 0 4
-4 4 -10z m-3384 -22 l7 -23 8 23 c5 12 13 22 18 22 7 0 7 -9 2 -22 -5 -13
-14 -23 -21 -23 -7 0 -19 10 -27 23 -9 12 -11 22 -5 22 6 0 14 -10 18 -22z
m119 12 c-3 -5 -12 -10 -18 -10 -7 0 -6 4 3 10 19 12 23 12 15 0z m975 6 c0
-3 -4 -8 -10 -11 -5 -3 -10 -1 -10 4 0 6 5 11 10 11 6 0 10 -2 10 -4z m90 -16
c18 -11 13 -16 -23 -25 -23 -6 -27 -4 -27 14 0 22 24 28 50 11z m-1107 -24 c6
-16 -2 -28 -14 -20 -12 7 -11 34 0 34 5 0 11 -6 14 -14z m397 -14 c0 -10 -7
-27 -15 -38 -13 -17 -14 -17 -6 13 5 17 7 34 3 37 -3 3 0 6 6 6 7 0 12 -8 12
-18z m755 -2 c3 -5 -1 -10 -9 -10 -9 0 -16 5 -16 10 0 6 4 10 9 10 6 0 13 -4
16 -10z m1375 -15 c0 -1 -14 -5 -32 -7 -27 -4 -29 -3 -14 8 15 10 46 10 46 -1z
m825 5 c3 -5 2 -10 -4 -10 -5 0 -13 5 -16 10 -3 6 -2 10 4 10 5 0 13 -4 16
-10z m-275 -15 c0 -13 -4 -14 -20 -5 -11 6 -20 13 -20 15 0 3 9 5 20 5 11 0
20 -7 20 -15z m-3183 -9 c-17 -13 -24 -31 -26 -63 -1 -18 -18 -16 -25 3 -4 10
-2 13 6 8 8 -5 9 -2 4 11 -8 21 19 55 43 55 14 -1 13 -3 -2 -14z m114 -19 c12
-22 12 -22 -10 -3 -11 11 -21 23 -21 28 0 14 19 -1 31 -25z m44 -7 c3 -5 1
-10 -4 -10 -6 0 -11 5 -11 10 0 6 2 10 4 10 3 0 8 -4 11 -10z m2391 -17 c-10
-10 -19 5 -10 18 6 11 8 11 12 0 2 -7 1 -15 -2 -18z m553 4 c14 -18 4 -27 -28
-26 -14 0 -20 3 -13 6 6 2 12 11 12 19 0 18 14 18 29 1z m111 -2 c-15 -18 -36
-19 -46 -3 -4 6 -3 8 4 4 6 -3 13 -2 17 4 3 5 13 10 22 10 13 0 13 -3 3 -15z
m150 -11 c0 -2 -11 -4 -25 -4 -14 0 -25 4 -25 9 0 4 11 6 25 3 14 -2 25 -6 25
-8z m-744 -30 c16 -24 16 -26 -4 -40 -17 -12 -20 -21 -15 -46 5 -23 3 -29 -6
-24 -7 5 -10 14 -7 22 3 8 0 14 -6 14 -7 0 -7 5 1 14 9 11 10 25 2 50 -7 29
-7 36 5 36 7 0 21 -11 30 -26z m299 16 c3 -5 -1 -10 -10 -10 -9 0 -13 5 -10
10 3 6 8 10 10 10 2 0 7 -4 10 -10z m105 6 c0 -9 -30 -14 -35 -6 -4 6 3 10 14
10 12 0 21 -2 21 -4z m506 -4 c-5 -8 -66 -4 -66 4 0 2 16 4 36 4 19 0 33 -4
30 -8z m-3133 -34 c-5 -10 -33 10 -33 23 0 5 9 4 19 -3 11 -7 17 -16 14 -20z
m2397 22 c0 -5 -8 -10 -17 -10 -15 0 -16 2 -3 10 19 12 20 12 20 0z m-2360
-36 c-18 -21 -24 -10 -8 15 7 12 14 17 16 11 2 -6 -2 -17 -8 -26z m2990 26 c0
-5 -4 -10 -10 -10 -5 0 -10 5 -10 10 0 6 5 10 10 10 6 0 10 -4 10 -10z m-665
-20 c3 -5 1 -10 -4 -10 -6 0 -11 5 -11 10 0 6 2 10 4 10 3 0 8 -4 11 -10z
m268 -10 c3 -11 1 -18 -4 -14 -5 3 -9 12 -9 20 0 20 7 17 13 -6z m-233 0 c0
-5 -4 -10 -10 -10 -5 0 -10 5 -10 10 0 6 5 10 10 10 6 0 10 -4 10 -10z m191
-13 c-13 -13 -26 -3 -16 12 3 6 11 8 17 5 6 -4 6 -10 -1 -17z m-111 -1 c0 -2
-7 -6 -15 -10 -8 -3 -15 -1 -15 4 0 6 7 10 15 10 8 0 15 -2 15 -4z m-2494 -44
l-29 -27 23 32 c13 18 26 30 29 28 3 -3 -8 -18 -23 -33z m2194 -7 c0 -6 -5
-16 -12 -23 -8 -8 -8 -15 1 -26 9 -11 9 -20 2 -34 -8 -15 -7 -23 4 -32 13 -11
14 -10 9 6 -5 19 -5 19 10 0 20 -25 11 -37 -19 -26 -14 5 -25 7 -25 4 0 -4 -7
-1 -15 6 -8 7 -15 18 -15 24 0 6 7 2 15 -8 9 -11 15 -14 15 -7 0 7 -7 19 -15
27 -8 9 -15 11 -15 5 0 -6 -4 -11 -10 -11 -5 0 -10 7 -10 15 0 8 5 15 10 15 6
0 9 3 9 8 -1 4 -1 18 0 31 1 18 4 21 14 12 17 -13 27 -5 27 23 0 17 -2 18 -10
6 -11 -17 -13 -9 -3 16 6 16 7 16 20 -2 7 -10 13 -23 13 -29z m440 35 c0 -17
-30 -24 -43 -10 -9 10 -9 11 0 6 6 -3 14 -2 18 4 8 13 25 13 25 0z m-501 -34
c-15 -33 -34 -34 -35 -1 -2 21 2 25 17 20 12 -4 19 -2 19 6 0 7 2 10 5 7 3 -3
0 -17 -6 -32z m-2518 -43 c-9 -16 -10 -15 -11 8 0 14 3 29 8 33 12 12 14 -22
3 -41z m2622 -3 c22 -26 22 -28 -6 -23 -14 3 -23 12 -23 24 0 24 7 24 29 -1z
m-2538 -6 c30 -20 32 -43 5 -74 -11 -13 -20 -29 -20 -35 0 -27 -34 -26 -56 2
-29 35 -29 40 -5 48 12 4 18 12 14 21 -3 10 0 12 10 9 11 -5 13 0 10 19 -6 30
7 33 42 10z m1475 -14 c0 -5 -4 -10 -10 -10 -5 0 -10 5 -10 10 0 6 5 10 10 10
6 0 10 -4 10 -10z m830 -12 c0 9 5 9 20 0 30 -19 24 -28 -12 -22 -19 3 -28 2
-22 -3 6 -4 11 -16 11 -26 0 -13 -5 -16 -21 -11 -12 4 -28 7 -36 7 -18 0 -40
16 -40 29 0 7 4 7 13 0 12 -11 55 5 56 21 1 4 1 13 1 20 0 7 7 4 15 -7 8 -11
15 -14 15 -8z m90 6 c0 -2 -9 -4 -21 -4 -11 0 -18 4 -14 10 5 8 35 3 35 -6z
m2 -42 c-7 -2 -10 -8 -6 -13 3 -5 0 -9 -5 -9 -13 0 -13 3 -5 24 3 9 11 13 17
9 8 -5 7 -8 -1 -11z m-887 -22 c0 -7 -6 -15 -12 -17 -8 -3 -13 4 -13 17 0 13
5 20 13 18 6 -3 12 -11 12 -18z m1825 5 c-6 -8 -9 -19 -6 -24 11 -17 -13 -23
-29 -7 -14 13 -13 16 7 30 28 20 44 21 28 1z m-925 -25 c3 -5 1 -10 -4 -10 -6
0 -11 5 -11 10 0 6 2 10 4 10 3 0 8 -4 11 -10z m136 -23 c-8 -8 -11 -7 -11 4
0 20 13 34 18 19 3 -7 -1 -17 -7 -23z m-2622 2 c12 -12 20 -24 16 -27 -3 -3
-18 6 -33 21 -31 32 -16 37 17 6z m187 -14 c0 -33 -2 -35 -33 -35 -18 0 -33 5
-33 10 0 6 5 10 11 10 6 0 8 7 5 16 -3 8 -2 12 4 9 6 -3 10 -2 10 4 0 5 8 12
18 14 9 3 17 5 18 6 0 0 0 -15 0 -34z m2406 0 c10 -14 10 -35 0 -35 -5 0 -19
9 -31 19 -15 13 -18 20 -9 24 18 6 32 4 40 -8z m868 -29 c0 -3 -4 -8 -10 -11
-5 -3 -10 -1 -10 4 0 6 5 11 10 11 6 0 10 -2 10 -4z"/>
<path d="M1075 1930 c3 -5 8 -10 11 -10 2 0 4 5 4 10 0 6 -5 10 -11 10 -5 0
-7 -4 -4 -10z"/>
<path d="M913 1922 c-22 -14 0 -30 27 -20 20 7 22 11 10 18 -18 12 -22 12 -37
2z"/>
<path d="M1042 1861 c-12 -10 -22 -21 -22 -25 0 -11 44 5 52 18 20 30 1 35
-30 7z"/>
<path d="M880 1814 c-35 -35 -35 -35 -9 -30 28 5 69 27 69 37 0 4 -6 11 -12
17 -10 7 -22 1 -48 -24z"/>
<path d="M962 1732 c-15 -10 -6 -42 12 -42 22 0 39 18 33 34 -7 17 -25 20 -45
8z"/>
<path d="M3050 360 c0 -5 5 -10 11 -10 5 0 7 5 4 10 -3 6 -8 10 -11 10 -2 0
-4 -4 -4 -10z"/>
<path d="M2955 4830 c3 -5 8 -10 11 -10 2 0 4 5 4 10 0 6 -5 10 -11 10 -5 0
-7 -4 -4 -10z"/>
<path d="M2200 4780 c0 -5 5 -10 10 -10 6 0 10 5 10 10 0 6 -4 10 -10 10 -5 0
-10 -4 -10 -10z"/>
<path d="M2860 4750 c20 -13 33 -13 25 0 -3 6 -14 10 -23 10 -15 0 -15 -2 -2
-10z"/>
<path d="M1921 4726 c-7 -9 -28 -14 -49 -14 -20 1 -56 -8 -80 -20 -39 -18 -79
-21 -104 -6 -12 8 -10 -10 4 -24 7 -7 22 -12 35 -12 27 0 27 1 7 -50 -12 -31
-14 -44 -5 -54 9 -11 -3 -22 -64 -57 -311 -178 -357 -210 -401 -281 -13 -21
-24 -47 -24 -58 0 -12 -12 -26 -32 -36 -18 -9 -51 -32 -72 -50 -38 -33 -66
-43 -66 -25 0 5 -13 14 -29 21 -33 13 -70 -1 -107 -42 -22 -23 -79 -128 -88
-161 -10 -32 -35 -31 -65 3 -28 32 -29 33 -40 12 -6 -11 -11 -28 -11 -36 0 -9
-4 -16 -9 -16 -17 0 -19 -40 -5 -112 17 -90 17 -88 0 -88 -8 0 -17 12 -21 28
-3 15 -22 51 -42 80 -28 42 -40 53 -55 49 -14 -4 -30 5 -53 30 -41 45 -63 41
-95 -19 -13 -26 -34 -49 -45 -52 -27 -7 -95 -70 -95 -88 0 -8 11 -20 25 -26
28 -13 36 -39 7 -27 -40 18 -73 17 -94 -1 -28 -26 -98 -130 -98 -146 0 -8 -19
-20 -42 -28 -53 -19 -68 -42 -45 -68 35 -39 13 -58 -24 -21 -33 33 -39 11 -39
-140 0 -123 1 -133 17 -126 10 4 39 10 65 12 26 3 45 9 42 14 -3 5 5 9 18 9
18 0 20 2 8 10 -25 16 -4 22 39 10 23 -6 41 -15 41 -21 0 -6 -10 -8 -22 -4
-22 6 -22 5 -3 -6 19 -12 19 -12 0 -20 -17 -6 -17 -8 -3 -8 40 -2 132 -80 115
-98 -3 -2 -10 5 -17 16 -19 36 -120 78 -120 51 0 -5 -9 -10 -21 -10 -11 0 -17
-4 -14 -10 4 -6 -6 -10 -22 -10 -25 1 -26 2 -11 14 15 11 15 16 5 30 -10 14
-21 16 -49 11 -74 -14 -69 34 -66 -607 l3 -576 515 378 c283 208 515 384 515
391 0 14 42 47 235 186 71 51 127 98 128 109 14 73 55 105 213 166 68 26 97
32 154 31 70 -2 70 -2 45 17 -13 10 -42 21 -63 24 -38 6 -75 30 -124 77 -12
12 -28 19 -36 16 -20 -8 -37 34 -37 92 0 90 38 277 71 348 23 52 33 92 40 166
11 115 41 201 105 304 l45 73 -24 32 c-13 18 -22 39 -20 46 3 6 -1 12 -7 12
-8 0 -10 10 -8 25 3 14 1 28 -3 31 -18 11 19 104 41 104 6 0 10 -9 10 -19 0
-11 6 -21 13 -24 9 -3 9 -8 -3 -21 -13 -16 -12 -18 5 -16 34 4 39 1 23 -12
-22 -18 -32 -78 -13 -78 7 0 17 5 20 10 5 7 11 8 19 1 7 -6 17 -6 26 -1 8 6
11 10 5 10 -5 0 -2 5 8 11 9 5 17 21 17 35 0 14 4 23 10 19 5 -3 6 -13 3 -23
-5 -14 -3 -15 7 -5 11 10 16 9 27 -5 13 -16 14 -15 10 6 -3 13 1 25 10 31 12
6 13 13 5 28 -12 21 0 54 12 34 4 -6 3 -11 -3 -11 -6 0 -8 -7 -4 -16 4 -10 8
-12 12 -5 4 7 13 3 24 -10 10 -11 22 -17 27 -14 6 3 10 -5 10 -19 0 -13 -4
-26 -9 -28 -4 -1 -5 -12 0 -23 6 -17 8 -17 8 -2 1 9 6 17 13 17 6 0 20 7 30
17 17 15 18 14 18 -23 0 -29 3 -35 10 -24 8 12 12 13 19 1 6 -9 10 -4 13 18 2
17 0 32 -6 35 -7 2 -7 8 2 17 9 9 12 10 12 1 0 -16 17 -15 23 1 2 6 2 2 0 -10
-3 -21 -1 -22 22 -11 13 6 22 15 19 19 -3 5 0 9 6 9 7 0 5 7 -4 16 -19 18 -20
26 -5 41 9 9 6 10 -11 6 -20 -5 -22 -3 -17 17 6 22 -19 80 -34 80 -4 0 -9 -12
-12 -26 -3 -17 2 -32 16 -44 17 -17 18 -21 6 -37 -8 -9 -9 -14 -2 -10 7 5 9 0
6 -13 -3 -11 -10 -20 -15 -20 -5 0 -6 6 -2 13 6 10 4 10 -7 0 -16 -16 -39 -17
-39 -2 0 5 4 8 9 5 5 -3 12 1 15 10 8 22 8 26 -4 19 -5 -3 -10 1 -10 9 0 9 -4
16 -10 16 -5 0 -10 6 -10 14 0 7 -7 19 -15 26 -12 10 -13 16 -4 27 14 16 16
14 -41 41 -33 16 -46 19 -49 10 -2 -7 -10 -19 -18 -26 -11 -11 -13 -11 -14 0
-1 7 -1 16 0 21 0 4 -6 7 -14 7 -8 0 -15 5 -15 11 0 6 -7 9 -15 5 -8 -3 -15
-1 -15 4 0 5 -7 7 -16 3 -11 -4 -15 -1 -12 12 2 13 -5 21 -22 26 -22 6 -20 7
12 8 27 1 40 7 48 22 14 25 8 35 -9 15z m144 -146 c4 -6 -2 -7 -16 -1 -13 4
-25 14 -27 20 -3 10 0 10 16 2 12 -6 24 -16 27 -21z m-100 -60 c3 -5 0 -7 -8
-4 -8 3 -18 1 -21 -5 -4 -5 -18 -6 -34 -2 -15 4 -32 6 -39 4 -6 -2 -14 1 -18
6 -4 7 14 11 54 11 33 0 63 -4 66 -10z m-85 -70 c-6 -12 -14 -20 -17 -17 -2 3
1 14 8 26 17 26 24 19 9 -9z m90 17 c0 -8 -7 -14 -15 -14 -11 0 -12 4 -4 14 6
7 13 13 15 13 2 0 4 -6 4 -13z m-133 -19 c-3 -8 -6 -5 -6 6 -1 11 2 17 5 13 3
-3 4 -12 1 -19z m33 -78 c0 -5 -2 -10 -4 -10 -3 0 -8 5 -11 10 -3 6 -1 10 4
10 6 0 11 -4 11 -10z m-223 -342 c-3 -7 -5 -2 -5 12 0 14 2 19 5 13 2 -7 2
-19 0 -25z m-627 -324 c0 -2 -7 -4 -15 -4 -8 0 -15 4 -15 10 0 5 7 7 15 4 8
-4 15 -8 15 -10z m-241 -259 c7 -25 21 -56 32 -68 10 -13 21 -35 24 -49 6 -24
4 -26 -32 -31 -47 -6 -62 6 -39 32 9 10 13 21 7 22 -13 5 -27 139 -15 139 5 0
16 -20 23 -45z m-419 -224 c0 -6 -4 -13 -10 -16 -5 -3 -10 1 -10 9 0 9 5 16
10 16 6 0 10 -4 10 -9z m-130 -30 c0 -6 -4 -13 -10 -16 -5 -3 -10 1 -10 9 0 9
5 16 10 16 6 0 10 -4 10 -9z m1150 -141 c-6 -11 -12 -20 -14 -20 -2 0 -11 9
-21 20 -18 20 -17 20 14 20 29 0 31 -2 21 -20z m-1234 -75 c17 -13 16 -14 -15
-5 -41 11 -51 20 -25 20 11 0 29 -7 40 -15z m-62 -431 c18 -18 20 -32 6 -54
-7 -12 -11 -10 -19 10 -6 17 -10 19 -10 8 -1 -18 -41 -22 -41 -3 1 51 33 71
64 39z"/>
<path d="M2868 4713 c7 -3 16 -2 19 1 4 3 -2 6 -13 5 -11 0 -14 -3 -6 -6z"/>
<path d="M2785 4700 c-3 -5 1 -10 10 -10 9 0 13 5 10 10 -3 6 -8 10 -10 10 -2
0 -7 -4 -10 -10z"/>
<path d="M2125 4690 c3 -5 10 -10 16 -10 5 0 9 5 9 10 0 6 -7 10 -16 10 -8 0
-12 -4 -9 -10z"/>
<path d="M2345 4683 c-13 -28 -14 -43 -4 -43 14 0 28 35 20 49 -6 10 -10 8
-16 -6z"/>
<path d="M2620 4675 c11 -13 9 -20 -10 -40 -13 -14 -19 -25 -14 -25 5 0 21 14
36 30 17 20 22 30 12 30 -8 0 -14 5 -14 10 0 6 -5 10 -11 10 -8 0 -7 -5 1 -15z"/>
<path d="M2675 4680 c4 -6 11 -8 16 -5 14 9 11 15 -7 15 -8 0 -12 -5 -9 -10z"/>
<path d="M2657 4646 c-9 -7 -17 -18 -17 -25 0 -6 -5 -11 -11 -11 -5 0 -7 -5
-4 -10 3 -6 18 4 32 20 28 34 28 46 0 26z"/>
<path d="M2281 4638 c-1 -23 -21 -34 -32 -17 -7 11 -9 11 -9 1 0 -7 -4 -11 -9
-8 -10 7 -25 -24 -16 -33 3 -3 10 1 15 9 6 8 10 10 10 5 0 -6 15 -19 33 -30
l32 -18 -18 21 c-15 16 -16 24 -7 42 6 11 9 26 6 33 -2 7 -5 5 -5 -5z"/>
<path d="M2700 4646 c0 -9 30 -14 35 -6 4 6 -3 10 -14 10 -12 0 -21 -2 -21 -4z"/>
<path d="M2086 4627 c3 -8 16 -20 30 -27 24 -13 32 -30 14 -30 -5 0 -7 -7 -4
-15 4 -8 10 -12 15 -9 5 3 7 9 4 14 -3 4 2 11 11 14 16 6 16 28 -1 27 -6 0
-25 9 -42 21 -24 14 -31 16 -27 5z"/>
<path d="M2400 4584 c0 -8 5 -12 10 -9 6 4 8 11 5 16 -9 14 -15 11 -15 -7z"/>
<path d="M2593 4563 c-3 -10 -8 -22 -11 -27 -3 -5 0 -6 5 -3 11 7 25 47 17 47
-3 0 -7 -8 -11 -17z"/>
<path d="M2556 4554 c-9 -24 -2 -26 12 -4 7 11 8 20 3 20 -5 0 -12 -7 -15 -16z"/>
<path d="M2245 4545 c4 -11 8 -25 8 -32 0 -7 4 -10 9 -7 12 8 10 18 -8 40 -15
19 -16 19 -9 -1z"/>
<path d="M2326 4547 c3 -10 9 -15 12 -12 3 3 0 11 -7 18 -10 9 -11 8 -5 -6z"/>
<path d="M2305 4510 c-3 -5 -1 -10 4 -10 6 0 11 5 11 10 0 6 -2 10 -4 10 -3 0
-8 -4 -11 -10z"/>
<path d="M2675 4490 c-3 -6 1 -7 9 -4 18 7 21 14 7 14 -6 0 -13 -4 -16 -10z"/>
<path d="M2497 4454 c-11 -14 -17 -28 -14 -30 3 -3 15 9 27 25 12 17 18 31 13
31 -4 0 -16 -12 -26 -26z"/>
<path d="M2240 4461 c0 -6 5 -13 10 -16 6 -3 10 1 10 9 0 9 -4 16 -10 16 -5 0
-10 -4 -10 -9z"/>
<path d="M2283 4443 c4 -3 1 -13 -6 -22 -11 -14 -10 -14 6 -2 20 15 22 31 5
31 -6 0 -8 -3 -5 -7z"/>
<path d="M2531 4426 c-13 -14 -22 -29 -20 -35 2 -6 17 5 32 24 32 40 22 48
-12 11z"/>
<path d="M2016 4414 c-3 -8 1 -14 9 -14 20 0 28 17 11 23 -8 3 -17 -1 -20 -9z"/>
<path d="M2446 4378 c-20 -40 -20 -43 1 -22 9 9 18 25 18 35 2 26 -1 24 -19
-13z"/>
<path d="M2015 4380 c-3 -5 -1 -10 4 -10 6 0 11 5 11 10 0 6 -2 10 -4 10 -3 0
-8 -4 -11 -10z"/>
<path d="M2482 4360 c-8 -13 -8 -20 -2 -20 6 0 13 7 17 15 9 24 -1 27 -15 5z"/>
<path d="M2630 4355 c0 -14 8 -29 19 -35 30 -16 38 -12 12 6 -15 11 -21 23
-18 35 3 11 1 19 -4 19 -5 0 -9 -11 -9 -25z"/>
<path d="M2397 4333 c-4 -3 -7 -11 -7 -17 0 -6 5 -5 12 2 6 6 9 14 7 17 -3 3
-9 2 -12 -2z"/>
<path d="M1821 4311 c-8 -5 -9 -11 -3 -15 6 -3 13 -2 17 4 4 6 11 8 16 5 5 -4
9 -1 9 4 0 13 -20 14 -39 2z"/>
<path d="M2035 4310 c3 -5 8 -10 11 -10 2 0 4 5 4 10 0 6 -5 10 -11 10 -5 0
-7 -4 -4 -10z"/>
<path d="M2440 4276 c-15 -39 -12 -46 6 -13 9 16 13 31 10 34 -3 3 -10 -6 -16
-21z"/>
<path d="M1825 4281 c-10 -17 9 -19 40 -6 l30 13 -32 1 c-17 1 -34 -3 -38 -8z"/>
<path d="M2407 4283 c-4 -3 -7 -11 -7 -17 0 -6 5 -5 12 2 6 6 9 14 7 17 -3 3
-9 2 -12 -2z"/>
<path d="M1995 4270 c-8 -13 5 -13 25 0 13 8 13 10 -2 10 -9 0 -20 -4 -23 -10z"/>
<path d="M2350 4260 c-12 -8 -11 -10 8 -10 12 0 22 5 22 10 0 13 -11 13 -30 0z"/>
<path d="M2280 4239 c0 -5 5 -7 10 -4 6 3 10 8 10 11 0 2 -4 4 -10 4 -5 0 -10
-5 -10 -11z"/>
<path d="M1845 4189 c-11 -17 1 -21 15 -4 8 9 8 15 2 15 -6 0 -14 -5 -17 -11z"/>
<path d="M2215 4190 c-3 -5 -2 -10 4 -10 5 0 13 5 16 10 3 6 2 10 -4 10 -5 0
-13 -4 -16 -10z"/>
<path d="M2263 4185 c-3 -9 -3 -18 -1 -21 3 -3 8 4 11 16 6 23 -1 27 -10 5z"/>
<path d="M2300 4175 c-7 -9 -10 -18 -7 -21 3 -3 10 4 17 15 13 25 8 27 -10 6z"/>
<path d="M2110 4070 c0 -5 5 -10 10 -10 6 0 10 5 10 10 0 6 -4 10 -10 10 -5 0
-10 -4 -10 -10z"/>
<path d="M565 3820 c3 -5 11 -10 16 -10 6 0 7 5 4 10 -3 6 -11 10 -16 10 -6 0
-7 -4 -4 -10z"/>
<path d="M1625 3663 c-8 -20 -13 -38 -10 -41 3 -3 5 -3 5 0 0 3 7 22 15 42 8
20 13 36 10 36 -2 0 -12 -16 -20 -37z"/>
<path d="M1601 3594 c0 -11 3 -14 6 -6 3 7 2 16 -1 19 -3 4 -6 -2 -5 -13z"/>
<path d="M1711 3484 c0 -11 3 -14 6 -6 3 7 2 16 -1 19 -3 4 -6 -2 -5 -13z"/>
<path d="M2070 3030 c0 -6 7 -13 15 -16 8 -4 13 -10 10 -14 -3 -5 0 -12 6 -16
8 -5 9 -3 4 6 -6 10 -3 12 11 8 10 -3 25 -7 33 -9 7 -2 15 1 18 7 2 6 -14 19
-37 28 -47 19 -60 20 -60 6z"/>
<path d="M1464 2905 c-7 -19 -14 -42 -14 -52 1 -16 2 -16 12 2 7 11 13 25 14
31 1 6 5 21 9 33 11 34 -5 24 -21 -14z"/>
<path d="M2075 2930 c3 -5 8 -10 11 -10 2 0 4 5 4 10 0 6 -5 10 -11 10 -5 0
-7 -4 -4 -10z"/>
<path d="M1387 2863 c-4 -3 -7 -16 -6 -27 0 -19 1 -19 10 3 10 24 8 36 -4 24z"/>
<path d="M1230 2770 c-9 -6 -10 -10 -3 -10 6 0 15 5 18 10 8 12 4 12 -15 0z"/>
<path d="M1546 2758 c-12 -37 -15 -68 -10 -82 12 -30 24 -5 22 45 -2 50 -6 59
-12 37z"/>
<path d="M4083 992 c-7 -5 -2 -12 13 -19 13 -6 26 -7 29 -3 8 12 -28 30 -42
22z"/>
<path d="M4165 790 c3 -5 8 -10 11 -10 2 0 4 5 4 10 0 6 -5 10 -11 10 -5 0 -7
-4 -4 -10z"/>
<path d="M1290 380 c0 -5 4 -10 9 -10 6 0 13 5 16 10 3 6 -1 10 -9 10 -9 0
-16 -4 -16 -10z"/>
<path d="M1570 376 c0 -8 -6 -16 -12 -19 -7 -2 -10 -8 -6 -12 8 -9 38 18 38
34 0 6 -4 11 -10 11 -5 0 -10 -6 -10 -14z"/>
<path d="M1720 370 c-12 -8 -11 -10 8 -10 12 0 22 5 22 10 0 13 -11 13 -30 0z"/>
<path d="M4020 369 c0 -5 5 -7 10 -4 6 3 10 8 10 11 0 2 -4 4 -10 4 -5 0 -10
-5 -10 -11z"/>
<path d="M1785 350 c-3 -5 -1 -10 4 -10 6 0 11 5 11 10 0 6 -2 10 -4 10 -3 0
-8 -4 -11 -10z"/>
<path d="M1840 345 c0 -9 5 -15 11 -13 6 2 11 8 11 13 0 5 -5 11 -11 13 -6 2
-11 -4 -11 -13z"/>
<path d="M3640 339 l-25 -20 22 -16 c22 -15 22 -16 6 -44 -19 -32 -33 -38 -33
-13 0 8 4 13 9 9 5 -3 12 -1 16 4 3 6 -6 9 -23 8 -27 -2 -28 -3 -14 -29 14
-29 56 -41 46 -13 -4 8 -1 15 5 15 6 0 11 -3 11 -8 0 -4 8 -12 18 -19 15 -9
19 -8 19 2 0 8 -5 13 -10 12 -5 -1 -12 4 -14 11 -3 6 2 12 11 12 22 0 20 9 -8
31 -28 22 -26 61 2 52 10 -3 13 -1 7 4 -5 4 -12 11 -15 15 -3 4 -16 -2 -30
-13z"/>
<path d="M3783 339 c26 -15 22 -39 -5 -32 -60 14 -78 15 -78 3 0 -6 6 -10 13
-7 6 2 22 -5 35 -16 12 -11 22 -15 22 -9 0 6 6 9 13 6 8 -3 18 6 25 20 10 22
9 27 -8 36 -24 13 -40 13 -17 -1z"/>
<path d="M1887 294 c-8 -8 1 -24 14 -24 5 0 9 7 9 15 0 15 -12 20 -23 9z"/>
<path d="M3507 279 c3 -10 11 -19 19 -19 16 0 8 26 -11 33 -9 4 -11 -1 -8 -14z"/>
<path d="M3307 271 c2 -10 10 -18 18 -18 16 0 9 23 -10 30 -8 4 -11 -1 -8 -12z"/>
<path d="M2117 273 c-3 -5 1 -14 9 -21 12 -11 14 -9 14 8 0 20 -14 27 -23 13z"/>
<path d="M3117 255 c-7 -16 8 -29 23 -20 15 9 12 35 -4 35 -8 0 -16 -7 -19
-15z"/>
<path d="M3710 256 c0 -9 7 -16 16 -16 9 0 14 5 12 12 -6 18 -28 21 -28 4z"/>
<path d="M3221 244 c6 -8 18 -14 25 -14 8 0 14 6 14 14 0 8 -10 14 -25 14 -20
0 -23 -3 -14 -14z"/>
<path d="M3278 253 c7 -3 16 -2 19 1 4 3 -2 6 -13 5 -11 0 -14 -3 -6 -6z"/>
<path d="M3780 254 c0 -7 42 -43 51 -44 3 0 4 11 1 25 -3 18 -11 25 -28 25
-13 0 -24 -3 -24 -6z"/>
<path d="M1490 245 c0 -9 59 -35 77 -34 10 1 3 6 -14 11 -18 6 -33 15 -33 19
0 5 -7 9 -15 9 -8 0 -15 -2 -15 -5z"/>
<path d="M3541 241 c-9 -6 -10 -11 -2 -15 6 -4 11 -2 11 4 0 7 7 9 16 6 8 -3
12 -2 9 4 -8 12 -16 12 -34 1z"/>
<path d="M4120 241 c0 -6 5 -13 10 -16 6 -3 10 1 10 9 0 9 -4 16 -10 16 -5 0
-10 -4 -10 -9z"/>
<path d="M3153 221 c-19 -16 -20 -21 -9 -30 11 -9 14 -8 12 6 0 12 7 19 22 21
12 2 22 8 22 13 0 15 -23 10 -47 -10z"/>
<path d="M3496 228 c3 -4 9 -8 15 -8 5 0 9 4 9 8 0 5 -7 9 -15 9 -8 0 -12 -4
-9 -9z"/>
<path d="M1320 216 c0 -2 7 -9 15 -16 12 -10 15 -10 15 4 0 9 -7 16 -15 16 -8
0 -15 -2 -15 -4z"/>
<path d="M1228 188 c9 -9 15 -9 24 0 9 9 7 12 -12 12 -19 0 -21 -3 -12 -12z"/>
<path d="M3318 154 c-4 -33 11 -51 37 -45 6 2 6 -2 0 -8 -17 -17 -6 -79 13
-77 9 2 23 -3 30 -11 17 -17 62 -17 62 0 0 9 2 9 9 -1 5 -8 21 -12 37 -10 26
3 29 7 26 33 -1 17 -4 49 -5 72 -1 32 -7 44 -24 52 -18 8 -21 7 -16 -4 3 -8 9
-12 14 -9 15 9 10 -29 -7 -47 -16 -18 -11 -44 7 -34 5 4 9 2 9 -3 0 -22 -39
-19 -61 4 -12 13 -27 24 -31 24 -5 0 -16 7 -25 15 -12 13 -13 18 -2 31 14 18
6 27 -38 42 -30 10 -31 10 -35 -24z"/>
<path d="M4030 170 c0 -5 5 -10 11 -10 5 0 7 5 4 10 -3 6 -8 10 -11 10 -2 0
-4 -4 -4 -10z"/>
<path d="M2100 149 c0 -5 5 -7 10 -4 6 3 10 8 10 11 0 2 -4 4 -10 4 -5 0 -10
-5 -10 -11z"/>
<path d="M3245 150 c-3 -5 -1 -10 4 -10 6 0 11 5 11 10 0 6 -2 10 -4 10 -3 0
-8 -4 -11 -10z"/>
<path d="M3756 124 c-3 -8 -14 -14 -25 -14 -14 0 -18 -5 -14 -20 5 -17 7 -18
21 -4 11 12 17 13 23 3 4 -7 6 -17 5 -23 -2 -6 -1 -8 1 -3 3 4 11 7 19 7 10 0
12 5 7 13 -4 6 -6 19 -5 28 4 21 -25 33 -32 13z"/>
<path d="M391 101 c8 -13 19 -32 25 -43 6 -11 14 -19 18 -19 3 1 23 -6 44 -15
20 -9 64 -18 97 -20 l60 -4 -70 18 c-81 20 -108 33 -154 76 -28 26 -31 27 -20
7z"/>
<path d="M3177 89 c4 -13 9 -17 15 -11 11 11 3 32 -12 32 -4 0 -6 -9 -3 -21z"/>
<path d="M3233 62 c-1 -20 3 -44 8 -52 6 -11 8 -9 7 10 0 14 2 32 6 41 4 9 1
21 -7 27 -10 9 -13 4 -14 -26z"/>
<path d="M3530 90 c0 -5 5 -10 10 -10 6 0 10 5 10 10 0 6 -4 10 -10 10 -5 0
-10 -4 -10 -10z"/>
<path d="M3175 20 c10 -11 25 -20 33 -20 12 0 11 5 -6 20 -28 26 -51 26 -27 0z"/>
<path d="M3260 21 c0 -5 5 -13 10 -16 6 -3 10 -2 10 4 0 5 -4 13 -10 16 -5 3
-10 2 -10 -4z"/>
<path d="M3595 21 c-3 -5 -1 -12 5 -16 5 -3 10 1 10 9 0 18 -6 21 -15 7z"/>
</g>
</svg>
